<?xml version="1.0" encoding="utf-8"?>
<!-- Generator: Adobe Illustrator 19.0.0, SVG Export Plug-In . SVG Version: 6.00 Build 0)  -->
<svg version="1.1" xmlns="http://www.w3.org/2000/svg" xmlns:xlink="http://www.w3.org/1999/xlink" x="0px" y="0px"
	 viewBox="0 0 841.9 595.3" style="enable-background:new 0 0 841.9 595.3;" xml:space="preserve">
<style type="text/css">
	.st0{fill-rule:evenodd;clip-rule:evenodd;fill:#FFFFFE;}
	.st1{clip-path:url(#SVGID_2_);fill:#FCF7CB;}
	.st2{font-family:'Roboto-Thin';}
	.st3{font-size:11.4797px;}
	.st4{fill:none;}
	.st5{font-family:'Roboto-Regular';}
	.st6{font-size:6.5598px;}
	.st7{fill:none;stroke:#000000;stroke-width:1.64;stroke-miterlimit:10;}
	.st8{fill:none;stroke:#13110C;stroke-width:0.5401;stroke-miterlimit:10;}
	.st9{fill:#FBEB6C;}
	.st10{fill:#12100B;}
	.st11{fill:#FCF7CB;}
	.st12{fill:#FDFAD9;}
	.st13{fill:none;stroke:#000000;stroke-width:1.9987;stroke-miterlimit:10;}
	.st14{fill:#FCEF8A;}
	.st15{fill:#FCF6C1;}
	.st16{fill:#9D9D9C;}
	.st17{fill:none;stroke:#878787;stroke-width:2.4599;stroke-miterlimit:10;}
	.st18{fill:none;stroke:#12100B;stroke-width:2.4599;stroke-miterlimit:10;}
	.st19{fill:none;stroke:#000000;stroke-width:0.6561;stroke-miterlimit:10;}
	.st20{fill:none;stroke:#000000;stroke-width:0.6561;stroke-miterlimit:10;stroke-dasharray:1.6201,0.81;}
	.st21{fill:none;stroke:#000000;stroke-width:0.6561;stroke-miterlimit:10;stroke-dasharray:1.6078,0.8039;}
	.st22{fill:#F8F094;}
</style>
<g id="carte">
	<path class="st0" d="M841.9,277.9c-0.6,3.8-7.3,5.1-10.8,3.7c-1.9-0.7-3.7-1.4-5.5-2.2c-2.3-1-3.2-2.9-3-5.4
		c0.2-2.2,0.4-4.4,0.6-6.6c0.2-2,0-4-1.2-5.7c-0.9-1.4-1.8-2.5-3.7-2.8c-2.5-0.4-4.9-1.2-7.4-2c-0.8-0.2-1.5-0.6-2.2-1.1
		c-2.7-2-5.2-4.3-8-6.1c-2.7-1.8-3.1-4.4-3.2-7.2c-0.3-5.3-0.6-10.7-1.3-16c-0.4-3.5-2.7-6.3-5-8.7c-3.8-4.1-8.1-7.7-12.2-11.5
		c-0.8-0.7-1.9-0.9-2.7-1.6c-1.3-1.1-3-2.2-3.6-3.7c-1.2-3.2-3.5-4.3-6.6-4.8c-2.8-0.5-4.2-2.7-3.3-5.2c0.3-0.9,1.1-1.8,1.8-2.5
		c0.9-0.9,1.9-1.8,2.9-2.5c1.6-1.2,2.1-2.8,1.1-4.3c-2.1-3.3-3-6.7-1.9-10.8c-2,0.2-2.6,1.5-3.1,2.5c-2.8,5.3-7.7,5.1-12.5,4.7
		c-2.2-0.2-3.4-2.5-4.1-4.3c-1.8-4.5-2.5-9.2,0.9-13.5c0.3-0.4,0.5-1,0.6-1.6c0.3-1.6-0.6-2.7-2.1-2.1c-2.7,1.2-4.8,0.6-7.1-0.9
		c-1.9-1.3-3.6-0.8-4.6,1.3c-1.2,2.3-2.1,4.7-3.2,7c-2.6,5.7-4.9,11.6-10,15.8c-0.4,0.3-0.6,1-0.9,1.5c-0.9,1.1-1.2,1.1-3,0.1
		c2-6.1,3.8-12.2,6-18.2c2.2-5.8,5.3-11.3,6.8-17.4c-3.7-1.5-3.8-1.7-3.4-5.3c1.2-0.2,2.4-0.4,3.6-0.7c1.4-0.4,2.2-1.4,1.8-2.9
		c-0.3-1.4-1.5-1.3-2.5-1.2c-1.2,0.2-2.3,0.3-3.4,0.7c-6.2,2-12.4,4-18.5,6.3c-2,0.8-4.5,1.6-4.7,4.9c1.7-0.3,3.3-0.4,4.3,1.3
		c1,1.7,1.1,3.1-0.7,3.8c-3.7,1.4-4.7,4.5-6.1,7.7c-1.3,3-3,5.8-4.6,8.6c-0.2,0.3-0.7,0.5-1.3,0.9c-0.6-0.9-1.4-1.5-1.5-2.3
		c-0.7-3.7-2.3-7.4-0.2-11.2c0.5-0.9,0.6-2,0.9-3c0.8-3,1.6-6.1,2.3-9.2c0.4-1.9,1.5-4.1-0.3-5.6c-1.6-1.4-3.6-0.4-5.3,0.3
		c-1.3,0.5-2.5,1.3-3.6,2.1c-3.5,2.8-7.3,4.3-11.9,4.2c-6.8-0.2-13.3,1.2-19.2,4.6c-2.5,1.4-4.7,3.8-6.5,6.2
		c-3.7,5.1-4.7,5.4-9.8,1.8c-1.6-1.1-3.4-2.1-5.1-3c-2.6-1.2-4.7-3-6.4-5.3c-1.6-2.2-3.1-4.4-2.4-7.4c0.1-0.5-0.1-1.1-0.2-1.8
		c-2.3,0-4.5,0-6.7,0c-2,0-3.7,0.6-4.6,2.5c-0.2,0.3-0.3,0.6-0.5,0.9c-1.4,2.9-5,3.8-5.6,7.7c-0.4,2.8-3,5.4-4.7,8.2
		c1.6,1.8,1.8,4.1,2,6.6c0.1,1.3,1,2.9,2,3.9c3.3,3.1,5.8,7,10,9.2c0.5,0.2,0.8,0.8,1.6,1.7c-1.3,0.3-2.1,0.6-2.9,0.6
		c-2.7,0.1-5.4,0.2-8,0.1c-3.9-0.2-7.3,1.3-10.9,2.3c-1.8,0.5-1.8,1.9-1.7,3.3c0.2,3,0.5,6,0.6,9c0,1.5-0.2,3-0.7,4.5
		c-0.9,3-3.6,4-6,2c-3.9-3.3-8.1-4.3-13-2.7c-2,0.7-3.1-0.3-3.2-2.5c0-1.1,0.2-2.3,0.3-3.5c-1.2-0.9-2.2-2.1-3.6-2.5
		c-1.2-0.4-2.9-0.3-3.9,0.3c-1.9,1.1-3.4,0.7-5.3,0c-4.3-1.7-8.7-3.3-13.1-4.7c-1.6-0.5-3.5-0.3-5.2-0.1c-3.3,0.3-6.6,0.9-10,0.7
		c-3.1-0.1-6,1.3-8.9,2.7c-4.7,2.3-5.4,6.5-5.7,10.7c-0.2,2.2,1.2,4.7,2.6,6.7c2.9,4.3,2.2,8.6,0.9,13.1c-0.2,0.8-1,1.5-1.5,2.2
		c-2.5-0.2-3.5-1.7-4.3-3.7c-0.7-2-1.7-3.8-2.6-5.7c-1.4-3.1-3.7-5.4-6.6-7c-1.7-0.9-2.4-2-1.6-4c0.7-2,0.4-3.9-1.3-5.5
		c-0.4,0.3-1,0.4-1.1,0.8c-1.3,3.1-4,4.8-6.5,6.7c-2.3,1.7-4.3,1.5-6-0.8c-2.2-3.2-4.3-6.4-6.4-9.6c-0.8-1.2-0.4-2,0.5-3
		c2.9-3.1,2.5-7.9-0.8-11c-1.7,3.1-4.5,3-7.5,2.8c-1.8-0.1-3.6,0.3-5.7,0.4c0.6,1.4,1.1,2.3,1.3,3.3c1,3.9-1.7,7-5.5,6.6
		c-3.4-0.4-6.6-1.5-9.3-3.7c-1-0.8-1.9-1.7-3-2.4c-2-1.4-4.2-2.6-6.8-2.2c-6.7,1.1-13.4,2.1-20,3.4c-3.5,0.7-4.4,2.9-2.8,6.1
		c1.2,2.5,1.9,5,1.1,7.8c-0.6,2.3-2.5,3.1-4.4,1.8c-0.3-0.2-0.5-0.5-0.7-0.7c-2.5-3.2-5.9-3.9-9.7-3.2c-0.7,0.1-1.4,0.1-2.1,0.1
		c-3.2,0.2-3.1,0.2-4.3,3.3c-1.4,3.9-3.6,7.3-7.5,9.5c-2.1-2.3-1.5-4.8-0.8-7.3c0.6-2.3,1.4-4.7,2-7c0.6-2.7-0.1-4.1-2.5-5.5
		c-1.3-0.8-2.7-1.3-3.9-2.2c-0.6-0.4-0.9-1.2-1.3-1.9c-1.2-2-2-2.3-4.3-1.8c-2.3,0.5-4.6,0.8-6.8,1.2c-2.4,0.5-4.8,0.6-6.5,2.9
		c-0.5,0.7-1.8,0.8-2.8,1.2c-0.8,0.3-1.6,0.6-2.4,0.8c0,3.3,3.9,2.4,4.5,5.1c-2,1.4-4.2,2.3-6.9,1.6c-1.6-0.5-3.4-0.6-5.5-0.9
		c-0.5,2.3-1,4.2-1.6,6.6c-1.3,1-3,0.4-4.6-0.2c-3.5-1.3-7-2.7-10.5-3.9c-3.2-1-6.5-1.6-10,0.8c1.1,0.8,2,1.4,2.9,2.1
		c2.7,1.9,2.7,3.4,0.3,5.6c-0.3,0.3-0.7,0.6-1.2,1c0.8,1.8,1.5,3.6,2.2,5.3c-3.7,1.8-11.4-0.3-16.6-4.3c-2.3,2.3-2.1,4.7,0.3,6.5
		c1.7,1.3,3.2,3,4.8,4.4c0.6,0.5,1.2,1.1,1.9,1.5c0.7,0.4,1.6,0.5,2.2,1.1c0.7,0.7,1.6,1.8,1.5,2.5c-0.3,1.5-1.8,1.1-2.9,0.9
		c-6-1.1-11.7-3.3-17-6.4c-4.5-2.6-8.7-1.9-13.1-0.7c-1.9,0.5-3.8,1.3-5.8,1.4c-3.2,0.1-5.3,1.7-6.8,4.1c-2.7,4.3-6.5,7.2-10.3,10.3
		c-3.1,2.6-5.3,5.8-5.1,10.2c0.1,1.7-0.3,3.4-0.5,5.2c-0.1,0.8-0.2,1.6-0.1,2.4c0.2,2.2,0.6,2.5,3,2.7c4.3,0.3,5.2,3.3,3.9,6
		c-0.5,1-1.6,1.7-2.6,2.3c-5.5,3.5-7.1,8.6-6.7,14.7c0.2,2.3,1.1,3.9,3.2,5c3.4,1.9,3.8,3.5,1.5,6.7c-1.3,1.8-2,3.8-1.8,5.8
		c0.4,2.5-0.8,4.5-1.5,6.7c-0.5,1.7-1.2,3.4-2.1,5.8c2.4-0.2,4.3-0.7,5.9-0.3c1.6,0.3,3.1,1.6,4.6,2.4c2.2-1.1,3.2-2.9,4.3-4.7
		c1.2-2.2,2.7-2.6,4.9-1.4c1.4,0.8,2.8,1.8,4.3,2.4c1.4,0.6,2.9,1.3,4.3,1.1c2.3-0.2,4.4,0.2,6.5,1.1c2.1,0.9,3.9,0.8,5.7-0.9
		c3.7-3.5,8.1-3.7,12.8-2.6c0.6,0.1,1.2,0.2,1.7,0.5c4.4,2.7,8.1,1,11.9-1.4c2.8-1.8,5.8-3.4,8.7-5.1c1.7-1,3.6-1.6,5.2-2.7
		c3.8-2.6,7.8-4.3,12.5-3.4c4.1,0.8,7.7-0.7,11-2.5c4.2-2.3,8-5.2,12-7.8c0.9-0.5,1.9-1.1,2.8-1.2c2.4-0.3,3.2,0.8,2.5,3.1
		c-0.2,0.5-0.7,1.1-0.7,1.6c0.4,3.9-2.3,5.9-4.9,7.5c-4.7,2.9-9.8,5.2-14.7,7.9c-2.1,1.1-4.1,2.3-6,3.6c-3,2-6,4-8.9,6.1
		c-0.6,0.4-1.1,0.9-1.6,1.4c-1.5,1.7-1.2,3.5,0.8,4.2c3.9,1.4,7.9,1.8,12,0.4c1.1-0.4,2.2-0.9,3.3-1c3.3-0.1,5.3-2,7-4.6
		c2.6-4,3.9-4.2,7.7-1.1c0.7,0.6,1.4,1.3,2.2,1.7c1.8,0.9,3.3,0.5,4.5-1.3c1.1-1.7,2.4-2.1,4.4-2.1c3.3-0.1,6.1,1,9.3,2
		c-0.3,0.6-0.4,1.2-0.7,1.3c-4.9,2.1-9.1,5.2-13.2,8.5c-0.7,0.6-1.5,1.2-1.9,2c-0.9,1.6-0.5,3,1.4,3.5c2.6,0.8,4.8,2.2,6.8,4
		c2.2,2.1,4.9,3.1,8.1,1.9c1.1-0.4,2.3-0.5,3.5-0.4c0.9,0.1,2.2,0.5,2.6,1.2c0.8,1.4,1.7,1.8,3.1,1.5c2.2-0.5,4.1,0.5,6,1.1
		c-0.5,2.6-4.8,5.8-9.5,7.5c-4,1.4-8,1.1-12.2,1c-1.4-4.7-5.8-4.1-9.3-5.2c-0.3-0.1-0.7,0-1,0.2c-5.5,3.2-11.9,4-17.8,6.3
		c-3.5,1.4-7.4,1.6-11.6,2.5c-1.8-2.5-3.9-5.1-5.6-7.8c-2-3.1-1.9-3.2-5.5-2c-2.3,0.8-4.6,1.6-7.2,1.1c-0.7-0.1-1.5,0.4-2.3,0.6
		c-3.2,0.8-6.4,1.2-9.4-0.8c-1.2-0.8-2.5-1.3-3.7-2c-2.8-1.5-3.5-3.9-2.8-7c0.8-3.3,1.1-6.6,1.6-10c0.2-1.2,0.3-2.5,0.4-3.7
		c-1.8,1.3-3.8,4.7-4.2,7c-0.5,3.2-1,6.4-1.7,9.6c-0.2,1-1.2,1.8-2,2.9c-2.4-1.5-4.4-2.8-6.6-4.1c-2.4,2.3-2.6,5.5-2.9,8.6
		c-0.1,1.5,0.8,2.8,2.7,3.1c3,0.5,5.9,1.2,8.8,2c2.2,0.6,3.2,2.6,4.6,4.2c1,1.2,0.1,2.4-0.1,3.6c-0.5,3.3-1.3,6.6,0.5,9.8
		c0.3,0.5,0.2,1.4,0.1,2c-0.5,2.9-1.1,5.7-1.7,8.5c-0.1,0.7-0.2,1.3-0.3,2.2c5.4-2.8,10.5-5.4,15.7-8c1.8-0.9,2.3-2.1,1.8-4
		c-0.7-2.6,0.4-4.6,2.5-6c0.8-0.5,1.9-0.7,2.8-0.6c7,0.6,13.2,3.8,19.6,6.1c5.7,2,11.4,4.2,17,6.5c2.3,0.9,4.5,2,6.5,3.3
		c2.5,1.7,1.8,4.6,2.1,7c0.1,0.9-0.1,1.9-0.5,2.7c-1.4,2.8-1.8,5.2,1.2,7.2c0.4,0.3,0.3,1.3,0.6,1.9c0.6,1.2,1,2.6,1.9,3.5
		c1.3,1.3,1.8,2.5,1.3,4.4c-0.7,2.4-1.4,4.7-4,5.7c-1.7,0.7-2.2,2.3-2.5,4c-0.4,1.7-0.8,3.4-1.2,5.1c-0.4,1.8-1.6,2.9-3.5,2.8
		c-3.3-0.1-6.5-0.4-9.8-0.6c-0.5,0-1.1-0.5-1.5-0.9c-5.7-5-12.1-5.5-18.9-3c-3,1.1-6,1.6-9.2,1.9c-3,0.2-6,1.2-8.7,2.4
		c-2,0.9-3.7,1.1-5.7,0.3c-4.5-1.7-8.8-0.3-12.2,2.1c-3.5,2.5-6.9,2.6-10.5,2c-2.3-0.4-4.3-0.8-6.3,0.7c-0.7,0.5-1.8,0.5-2.7,0.4
		c-3.1-0.1-6.3-0.5-9.4-0.6c-1.5,0-3.3-0.1-4.4,0.7c-2.2,1.7-4.6,1.6-7,1.7c-4.3,0.3-4.3,0.3-4.8,4.6c-0.1,1.2-1.7,2.5-0.2,3.5
		c1.3,0.9,2.9,1.6,4.4,1.8c2.2,0.2,4.4-0.2,6.6-0.3c0.6,0,1.1,0,1.8,0.1c0.3,0.8,0.5,1.6,0.8,2.3c0.9,1.9,2.1,2.7,4.2,2.2
		c4-0.9,7.6-0.3,11.1,1.7c1.8,1,3.8,1.7,5.7,2.6c1.9,0.9,3.8,1.8,5.9,2.8c1.1-1.3,2-2.6,3.1-3.8c1.6-1.7,2.6-1.7,3.7,0.4
		c1.1,2.1,2.7,3.7,4.6,5.2c1.3,1,2.4,2.6,3.1,4.1c1,2.3,2.6,3.9,4.9,4.6c3.3,1.1,6.1,2.7,8,5.8c1.4,2.3,3.8,3.4,6.7,2.6
		c0.4-0.1,0.9,0,1.7,0c0.4,1,1.1,2.1,1.1,3.2c-0.1,2.1,0.9,3.8,1.8,5.6c2.3,4.4,4.1,9.1,7.4,13c1.8,2.2,2.4,4.9,2.5,7.8
		c0.2,4.2,1,8.3,3.7,11.8c0.7,0.9,1.4,1.9,2.2,2.7c2,1.7,2.8,3.9,3,6c-3.9,4.5-7.5,8.6-11.3,13.1c1.6,1.4,2.9,2.9,4.5,4
		c0.9,0.6,2.2,0.6,3.3,0.4c2.4-0.4,4.6-0.1,6.9,0.5c3.5,0.9,7,1.5,10.3,3.2c0.9,0.5,2.3,0.5,3.4,0.3c4-0.7,8.1-1.4,12-2.4
		c1.8-0.4,3.3-1.6,5-2.4c1.5-0.7,3-1.2,4.5-1.9c2-1,2.3-1.7,1.2-3.6c-1.9-3.5-4.2-6.8-7.4-9.2c-1.9-1.4-2.1-2.4-1-4.4
		c0.9-1.7,1.6-3.4,2.7-4.9c0.5-0.8,1.5-1.6,2.4-1.9c1.8-0.4,3.6-0.6,5.5-0.6c0.5,0,1.3,0.6,1.6,1.1c0.7,1.5,1.5,3.1,1.8,4.8
		c0.3,1.7,1,2.4,2.6,2.8c4.4,1.2,9.3-0.7,11.7-4.9c0.5-0.8,0.8-1.7,1.2-2.5c1.2-2.3,3-2.5,4.5-0.4c0.6,0.8,0.9,1.9,1.3,2.9
		c1.9,4.3,4.1,5.6,8.8,5.1c1.7-0.2,3.5-0.5,5.2-0.4c1.7,0,3.5,0.1,5.1,0.6c1.6,0.6,2.8,0.6,4.2-0.4c1-0.7,2.2-1.2,3.7-2
		c-0.2-1.5-0.3-3.2-0.8-4.8c-0.6-2.2,0.1-3.9,1.3-5.6c0.8-1.1,1.6-1.6,2.9-1.2c2,0.5,4,0.8,6.2,0.2c1-0.3,2.3,0.6,3.6,1
		c-1.1,2.3-1.5,4-0.6,6.1c0.9,2.1,1.7,4.1,4.1,4.9c1.1,0.4,2,1.1,1.5,2.4c-1.2,2.8,0.9,4.6,2,6.6c0.2,0.3,0.5,0.5,0.8,0.7
		c3.5,2.8,6.3,5.9,5.9,10.8c0,0.8,0.7,1.7,1.3,2.4c1.2,1.4,2.6,2.7,4,3.9c0.7,0.5,1.6,0.8,2.5,0.9c3,0.4,6.1,0.6,9.1,0.8
		c3.4,0.3,4.4,1.2,5.4,4.4c0.8,2.9,5.1,4.4,7.1,2.3c1.3-1.5,2.5-1.4,4-1c0.4,0.1,0.9,0.4,1.3,0.5c2.7,0.5,4.7-1.2,4-3.7
		c-0.8-2.8-0.9-5.5-0.2-8.2c0.2-0.7-0.2-1.6-0.2-2.4c0-0.9,0-1.8,0.2-2.7c0.2-1.4,0.9-2.5,2.5-2.4c1.5,0.1,1.6,1.4,1.9,2.6
		c0.6,2.5,1.4,4.9,2,7.4c0.3,1.2,0.4,2.5,0.7,3.9c1.7-0.1,2.8-0.8,3.9-2c1.2-1.4,2.6-2.7,4-3.9c1.8-1.5,3.3-0.9,3.8,1.3
		c0.1,0.5,0.2,0.9,0.1,1.4c-0.5,3.1-1,6.2-1.7,9.2c-0.9,3.8,0.7,6.5,4.4,7.6c1.8,0.5,3.4,1.4,5.1,2.3c1.7,0.8,3.3,1.8,4.9,2.8
		c1.2,0.8,2.3,0.9,3.5,0c2-1.4,4.2-1.2,6.4-0.6c1,0.3,2,0.6,3.1,0.8c2.7,0.5,4.9,0,6.1-2.8c0.3-0.7,0.8-1.5,1.4-2
		c0.6-0.4,1.7-0.8,2.2-0.6c3.1,1.6,6.1,3.2,7.6,6.8c2.2,5.6,5.5,10.5,10.6,14.3c1.7-0.2,3.7-0.5,5.6-0.6c2.2-0.1,4-1,5.8-2.1
		c0.7-0.4,1.7-0.7,2.4-0.5c1.9,0.4,3.8,1,5.6,1.5c3.5-3.2,5.9-3.1,7.7,3c1.9,0.6,3.6-0.5,5.3-1.1c1.6-0.6,3.2-1.5,4.7-2.3
		c2.2-1.1,4.7-1.7,6.4-3.3c1.7-1.6,2.4-4.1,3.6-6.3c0.2-0.4,0.4-1,0.7-1.2c2.9-1.9,5.8-3.7,8.5-5.5c0.5,0.5,0.9,0.6,0.9,0.8
		c-0.7,3.8-0.2,7.8-2.5,11.3c-1.3,1.9-2.2,4.1-3.2,6.1c-1.6,3-3.7,5.1-7.4,4.9c-3.8-0.1-6.1,2.4-8.6,4.6c-0.3,5.1,2.5,7.4,7.7,7
		h200.4L841.9,277.9z M598.8,234.4c0.5-0.5,0.7-0.7,0.8-0.9c0.1-0.2-0.1-0.5-0.1-0.8c-0.1,0-0.2,0-0.3,0
		C599.1,233.1,599,233.5,598.8,234.4"/>
</g>
<g id="ERWAN">
	<g>
		<defs>
			<rect id="SVGID_1_" x="151.6" y="101.4" width="690.3" height="488.1"/>
		</defs>
		<clipPath id="SVGID_2_">
			<use xlink:href="#SVGID_1_"  style="overflow:visible;"/>
		</clipPath>
		<path class="st1" d="M422.1,359.1c2.7,0,4.9-2.2,4.9-5c0-2.8-2.2-5-4.9-5c-2.7,0-4.9,2.2-4.9,5
			C417.2,356.9,419.4,359.1,422.1,359.1"/>
	</g>
	<text transform="matrix(1 0 0 1 453.5792 167.48)" class="st2 st3"> </text>
	<circle cx="431.5" cy="456.7" r="2.8"/>
	<circle cx="344.1" cy="245.1" r="2.6"/>
	<rect x="348.4" y="241.9" class="st4" width="54" height="25.4"/>
	<text transform="matrix(1 0 0 1 348.4287 246.5249)" class="st5 st6">La Sill </text>
	<g>
		<rect x="436.3" y="454.3" class="st4" width="80.1" height="24.8"/>
		<text transform="matrix(1 0 0 1 436.3476 458.9698)" class="st5 st6">Beurre Le Gall</text>
	</g>
	<circle class="st7" cx="423.4" cy="364.9" r="2.6"/>
	<rect x="428.8" y="362" class="st4" width="54" height="25.4"/>
	<text transform="matrix(1 0 0 1 428.7872 366.6515)" class="st5 st6">Biolait </text>
	<g>
		<path class="st8" d="M419.4,373c-0.6,0.8-0.5,1-0.9,1.8c-0.4,0.9-0.7,1.7-0.9,2.7c-0.2,1.6-0.3,3.4,0,5c0.1,0.5,0.2,2,0.6,2.3
			c0.5,0.4,2.1,0.1,2.7,0.1c0.1-0.8-0.1-2.3,0.7-2.9c0.5-0.4,2.3-0.4,2.8-0.2c1.3,0.5,0.5,1.9,0.8,2.9c1.9,0.1,3.3,0,5.7-0.1
			c1.3,0,2.2,0.2,3.5,0.1c-0.1-1.2-0.6-1.7,0.4-2.6c-2.8-0.2-5.8,0.5-8.6,0.2c-0.4-2.9-0.3-6.1-0.4-9.1
			C423.8,373,421.6,373,419.4,373"/>
		<path class="st8" d="M429.9,380.5h30.5c0,0,0.8-1.6,0.8-3.5c0-1.9-1-4.9-1-4.9l-29.5-0.5c0,0-1.4,2.4-1.5,4.6
			C429.1,378.5,429.9,380.5,429.9,380.5z"/>
		<rect x="419.8" y="374.5" class="st8" width="2.7" height="2.5"/>
		<circle class="st8" cx="423.1" cy="383.8" r="2"/>
		<circle class="st8" cx="436.9" cy="383.8" r="2.2"/>
		<circle class="st8" cx="452.1" cy="384" r="2.2"/>
		<circle class="st8" cx="456.9" cy="384" r="2.2"/>
		<path class="st8" d="M440.3,380.5l1.1,2.9l7.7,0.1c0,0,1.8-1.7,2.9-1.8c1.1-0.1,5-0.5,6.3,0.5c1.3,0.9,0.8,2.5,0.8,2.5h1.3
			l-0.2-4.1"/>
		<path class="st8" d="M426,373.1l1.5,0.1l0.3,7.9l7.2,0.2c0,0,0.5-0.8,2.4-0.5c1.9,0.2,2.5,1.5,2.5,3.1c0.1,1.1-0.9,0.7-0.9,0.7"/>
		<circle class="st8" cx="423.2" cy="383.9" r="1.2"/>
		<circle class="st8" cx="436.9" cy="383.8" r="1.2"/>
		<circle class="st8" cx="452.1" cy="384" r="1.2"/>
		<circle class="st8" cx="457" cy="384.1" r="1.2"/>
	</g>
</g>
<g id="CELINE">
	<path class="st9" d="M656.9,354.5c1.7,0,3.1-1.4,3.1-3.2c0-1.8-1.4-3.2-3.1-3.2c-1.7,0-3.1,1.4-3.1,3.2
		C653.8,353.1,655.2,354.5,656.9,354.5"/>
	<circle class="st10" cx="657.1" cy="358.1" r="2"/>
</g>
<g id="YVON">
	<path class="st11" d="M429,258c2.7,0,4.9-2.2,4.9-4.9c0-2.7-2.2-4.9-4.9-4.9c-2.7,0-4.9,2.2-4.9,4.9C424.1,255.8,426.3,258,429,258
		"/>
	<circle cx="431.5" cy="456.7" r="2.8"/>
	<circle cx="344.1" cy="245.1" r="2.6"/>
	<circle class="st7" cx="429.9" cy="266.9" r="2.6"/>
	<rect x="351.3" y="240.6" class="st4" width="54" height="25.4"/>
	<text transform="matrix(1 0 0 1 351.2989 245.295)" class="st5 st6">La Sill </text>
	<g>
		<rect x="437.4" y="262.4" class="st4" width="54" height="25.4"/>
		<text transform="matrix(1 0 0 1 437.3966 267.0245)" class="st5 st6">Biolait </text>
	</g>
	<rect x="440.9" y="451.9" class="st4" width="80.1" height="24.8"/>
	<text transform="matrix(1 0 0 1 440.8574 456.5099)" class="st5 st6">Beurre Le Gall</text>
	<g>
		<path class="st8" d="M426,275c-0.6,0.8-0.5,1-0.9,1.8c-0.4,0.9-0.7,1.7-0.9,2.7c-0.2,1.6-0.3,3.4,0,5c0.1,0.5,0.2,2,0.6,2.3
			c0.5,0.4,2.1,0.1,2.7,0.1c0.1-0.8-0.1-2.3,0.7-2.9c0.5-0.4,2.3-0.4,2.8-0.2c1.3,0.5,0.5,1.9,0.8,2.9c1.9,0.1,3.3,0,5.7-0.1
			c1.3,0,2.2,0.2,3.5,0.1c-0.1-1.2-0.6-1.7,0.4-2.6c-2.8-0.2-5.8,0.5-8.6,0.2c-0.4-2.9-0.3-6.1-0.4-9.1C430.4,275,428.2,275,426,275
			"/>
		<path class="st8" d="M436.5,282.5H467c0,0,0.8-1.6,0.8-3.5c0-1.9-1-4.9-1-4.9l-29.5-0.5c0,0-1.4,2.4-1.5,4.6
			C435.7,280.5,436.5,282.5,436.5,282.5z"/>
		<rect x="426.3" y="276.6" class="st8" width="2.7" height="2.5"/>
		<circle class="st8" cx="429.7" cy="285.9" r="2"/>
		<circle class="st8" cx="443.5" cy="285.8" r="2.2"/>
		<circle class="st8" cx="458.6" cy="286.1" r="2.2"/>
		<circle class="st8" cx="463.5" cy="286.1" r="2.2"/>
		<path class="st8" d="M446.9,282.5l1.1,2.9l7.7,0.1c0,0,1.8-1.7,2.9-1.8c1.1-0.1,5-0.5,6.3,0.5c1.3,0.9,0.8,2.5,0.8,2.5h1.3
			l-0.2-4.1"/>
		<path class="st8" d="M432.6,275.1l1.5,0.1l0.3,7.9l7.2,0.2c0,0,0.5-0.7,2.4-0.5c1.9,0.2,2.5,1.5,2.5,3.1c0.1,1.1-0.9,0.7-0.9,0.7"
			/>
		<circle class="st8" cx="429.7" cy="285.9" r="1.2"/>
		<circle class="st8" cx="443.5" cy="285.8" r="1.2"/>
		<circle class="st8" cx="458.7" cy="286.1" r="1.2"/>
		<circle class="st8" cx="463.6" cy="286.1" r="1.2"/>
	</g>
	<rect x="-23.5" y="186" class="st4" width="57" height="33.5"/>
</g>
<g id="MICHEL">
	<path class="st12" d="M413.6,261.5c3.6,0,6.5-2.9,6.5-6.5c0-3.6-2.9-6.5-6.5-6.5c-3.6,0-6.5,2.9-6.5,6.5
		C407.1,258.6,410.1,261.5,413.6,261.5"/>
	<circle class="st13" cx="384.4" cy="271.6" r="2.6"/>
	<circle class="st13" cx="363.5" cy="284.7" r="2.6"/>
	<circle cx="389.4" cy="278.9" r="2.6"/>
	<rect x="390.9" y="267.8" class="st4" width="71.7" height="25.2"/>
	<text transform="matrix(1 0 0 1 390.9307 272.4913)" class="st5 st6">Even- Triskalia</text>
	<rect x="394.5" y="276.3" class="st4" width="71.7" height="25.2"/>
	<text transform="matrix(1 0 0 1 394.4839 280.964)" class="st5 st6">Paysan Breton</text>
	<rect x="369.3" y="282" class="st4" width="71.7" height="25.2"/>
	<text transform="matrix(1 0 0 1 369.3384 286.7041)" class="st5 st6">Laïta </text>
</g>
<g id="YVES">
	<path class="st14" d="M548.9,363.6c2.2,0,4-1.8,4-4c0-2.2-1.8-4-4-4c-2.2,0-4,1.8-4,4C544.9,361.8,546.7,363.6,548.9,363.6"/>
	<circle class="st7" cx="549.7" cy="376.4" r="2.6"/>
	<circle cx="549" cy="368.1" r="2"/>
	<rect x="555.1" y="373.5" class="st4" width="54" height="25.4"/>
	<text transform="matrix(1 0 0 1 555.0635 378.1319)" class="st5 st6">Biolait </text>
	<g>
		<path class="st8" d="M545.7,384.5c-0.6,0.8-0.5,1-0.9,1.8c-0.4,0.9-0.7,1.7-0.9,2.7c-0.2,1.6-0.3,3.4,0,5c0.1,0.5,0.2,2,0.6,2.3
			c0.5,0.4,2.1,0.1,2.7,0.1c0.1-0.8-0.1-2.3,0.7-2.9c0.5-0.4,2.3-0.4,2.8-0.2c1.3,0.5,0.5,1.9,0.8,2.9c1.9,0.1,3.3,0,5.7-0.1
			c1.3,0,2.2,0.2,3.5,0.1c-0.1-1.2-0.6-1.7,0.4-2.6c-2.8-0.2-5.8,0.5-8.6,0.2c-0.4-2.9-0.3-6.1-0.4-9.1
			C550.1,384.4,547.9,384.5,545.7,384.5"/>
		<path class="st8" d="M556.2,391.9h30.5c0,0,0.8-1.6,0.8-3.5c0-1.9-1-4.9-1-4.9L557,383c0,0-1.4,2.4-1.5,4.6
			C555.4,389.9,556.2,391.9,556.2,391.9z"/>
		<rect x="546" y="386" class="st8" width="2.7" height="2.5"/>
		<circle class="st8" cx="549.4" cy="395.3" r="2"/>
		<circle class="st8" cx="563.2" cy="395.3" r="2.2"/>
		<circle class="st8" cx="578.4" cy="395.5" r="2.2"/>
		<circle class="st8" cx="583.2" cy="395.5" r="2.2"/>
		<path class="st8" d="M566.6,391.9l1.1,2.9l7.7,0.1c0,0,1.8-1.7,2.9-1.8c1.1-0.1,5-0.5,6.3,0.5c1.3,0.9,0.8,2.5,0.8,2.5h1.3
			l-0.2-4.1"/>
		<path class="st8" d="M552.3,384.6l1.5,0.1l0.3,7.9l7.2,0.2c0,0,0.5-0.8,2.4-0.5c1.9,0.2,2.5,1.5,2.5,3.1c0.1,1.1-0.9,0.7-0.9,0.7"
			/>
		<circle class="st8" cx="549.4" cy="395.4" r="1.2"/>
		<circle class="st8" cx="563.2" cy="395.3" r="1.2"/>
		<circle class="st8" cx="578.4" cy="395.5" r="1.2"/>
		<circle class="st8" cx="583.3" cy="395.6" r="1.2"/>
	</g>
	<circle cx="429.5" cy="451.8" r="2.8"/>
	<circle cx="342" cy="240.2" r="2.6"/>
	<rect x="346.4" y="236.9" class="st4" width="54" height="25.4"/>
	<text transform="matrix(1 0 0 1 346.379 241.6051)" class="st5 st6">La Sill </text>
	<g>
		<rect x="434.3" y="449.4" class="st4" width="80.1" height="24.8"/>
		<text transform="matrix(1 0 0 1 434.2969 454.0499)" class="st5 st6">Beurre Le Gall</text>
	</g>
</g>
<g id="BRUNO">
	<path class="st15" d="M532.4,359.6c3,0,5.4-2.5,5.4-5.7c0-3.1-2.4-5.7-5.4-5.7c-3,0-5.4,2.5-5.4,5.7
		C526.9,357,529.4,359.6,532.4,359.6"/>
	<circle class="st16" cx="425.5" cy="450.4" r="2.8"/>
	<circle class="st17" cx="338" cy="238.9" r="2.6"/>
	<circle class="st18" cx="533.5" cy="372.8" r="2.6"/>
	<rect x="342.4" y="235.6" class="st4" width="54" height="25.4"/>
	<text transform="matrix(1 0 0 1 342.416 240.2388)" class="st5 st6">La Sill </text>
	<g>
		<rect x="430.3" y="448" class="st4" width="80.1" height="24.8"/>
		<text transform="matrix(1 0 0 1 430.335 452.6827)" class="st5 st6">Beurre Le Gall</text>
	</g>
	<rect x="539.4" y="370.1" class="st4" width="56.9" height="13.7"/>
	<text transform="matrix(1 0 0 1 539.4073 374.7598)" class="st5 st6">Lactalis</text>
	<circle class="st10" cx="533.5" cy="382.7" r="2.6"/>
	<rect x="539.4" y="379.9" class="st4" width="56.9" height="13.7"/>
	<text transform="matrix(1 0 0 1 539.4073 384.5998)" class="st5 st6">Président</text>
	<g>
		<g>
			<polyline class="st19" points="572.8,391.4 572.8,392.2 571.9,392.2 			"/>
			<line class="st20" x1="571.1" y1="392.2" x2="527.8" y2="392.2"/>
			<polyline class="st19" points="527.4,392.2 526.6,392.2 526.6,391.4 			"/>
			<line class="st21" x1="526.6" y1="390.6" x2="526.6" y2="364.5"/>
			<polyline class="st19" points="526.6,364.1 526.6,363.3 527.4,363.3 			"/>
			<line class="st20" x1="528.2" y1="363.3" x2="571.5" y2="363.3"/>
			<polyline class="st19" points="571.9,363.3 572.8,363.3 572.8,364.1 			"/>
			<line class="st21" x1="572.8" y1="364.9" x2="572.8" y2="391"/>
		</g>
	</g>
</g>
<g id="VINCENT">
	<path class="st22" d="M602.4,272.2c2.7,0,4.8-2.2,4.8-4.8c0-2.7-2.2-4.8-4.8-4.8c-2.7,0-4.8,2.2-4.8,4.8
		C597.6,270.1,599.7,272.2,602.4,272.2"/>
	<circle class="st10" cx="602.5" cy="277.4" r="2.6"/>
	<circle class="st7" cx="602.5" cy="286.2" r="2.6"/>
	<rect x="608" y="283.3" class="st4" width="54" height="25.4"/>
	<text transform="matrix(1 0 0 1 607.9522 287.9337)" class="st5 st6">Biolait </text>
	<g>
		<path class="st8" d="M598.6,294.3c-0.6,0.8-0.5,1-0.9,1.8c-0.4,0.9-0.7,1.7-0.9,2.7c-0.2,1.6-0.3,3.4,0,5c0.1,0.5,0.2,2,0.6,2.3
			c0.5,0.4,2.1,0.1,2.7,0.1c0.1-0.8-0.1-2.3,0.7-2.9c0.5-0.4,2.3-0.4,2.8-0.2c1.3,0.5,0.5,1.9,0.8,2.9c1.9,0.1,3.3,0,5.7-0.1
			c1.3,0,2.2,0.2,3.5,0.1c-0.1-1.2-0.6-1.7,0.4-2.6c-2.8-0.2-5.8,0.5-8.6,0.2c-0.4-2.9-0.3-6.1-0.4-9.1
			C603,294.2,600.8,294.3,598.6,294.3"/>
		<path class="st8" d="M609.1,301.7h30.5c0,0,0.8-1.6,0.8-3.5c0-1.9-1-4.9-1-4.9l-29.5-0.5c0,0-1.4,2.4-1.5,4.6
			C608.3,299.7,609.1,301.7,609.1,301.7z"/>
		<rect x="598.9" y="295.8" class="st8" width="2.7" height="2.5"/>
		<circle class="st8" cx="602.3" cy="305.1" r="2"/>
		<circle class="st8" cx="616.1" cy="305.1" r="2.2"/>
		<circle class="st8" cx="631.3" cy="305.3" r="2.2"/>
		<circle class="st8" cx="636.1" cy="305.3" r="2.2"/>
		<path class="st8" d="M619.5,301.7l1.1,2.9l7.7,0.1c0,0,1.8-1.7,2.9-1.8c1.1-0.1,5-0.5,6.3,0.5c1.3,0.9,0.8,2.5,0.8,2.5h1.3
			l-0.2-4.1"/>
		<path class="st8" d="M605.2,294.4l1.5,0.1l0.3,7.9l7.2,0.2c0,0,0.5-0.8,2.4-0.5c1.9,0.2,2.5,1.5,2.5,3.1c0.1,1.1-0.9,0.7-0.9,0.7"
			/>
		<circle class="st8" cx="602.3" cy="305.2" r="1.2"/>
		<circle class="st8" cx="616.1" cy="305.1" r="1.2"/>
		<circle class="st8" cx="631.3" cy="305.3" r="1.2"/>
		<circle class="st8" cx="636.2" cy="305.4" r="1.2"/>
	</g>
</g>
</svg>
